<svg xmlns="http://www.w3.org/2000/svg" xmlns:xlink="http://www.w3.org/1999/xlink" version="1.1" x="0px" y="0px" viewBox="0 0 50 62.5" enable-background="new 0 0 50 50" xml:space="preserve"><path d="M31.488,22.464c0-4.672-3.801-8.473-8.474-8.473c-4.672,0-8.473,3.801-8.473,8.473c0,4.673,3.801,8.474,8.473,8.474  C27.688,30.938,31.488,27.137,31.488,22.464z M16.542,22.464c0-3.569,2.904-6.473,6.473-6.473c3.569,0,6.474,2.904,6.474,6.473  c0,3.569-2.904,6.474-6.474,6.474C19.446,28.938,16.542,26.033,16.542,22.464z"/><path d="M23.015,8.75c0.703,0,1.409,0.054,2.1,0.159c0.54,0.083,1.057-0.291,1.14-0.837c0.084-0.546-0.291-1.056-0.837-1.14  c-0.791-0.121-1.599-0.183-2.402-0.183c-8.665,0-15.714,7.049-15.714,15.714c0,0.804,0.062,1.612,0.183,2.402  c0.076,0.495,0.501,0.849,0.987,0.849c0.051,0,0.102-0.004,0.153-0.012c0.546-0.083,0.921-0.594,0.837-1.14  c-0.105-0.69-0.159-1.397-0.159-2.1C9.301,14.902,15.453,8.75,23.015,8.75z"/><path d="M44.046,28.942c0.645-2.093,0.989-4.265,0.989-6.479c0-12.142-9.878-22.02-22.021-22.02  c-12.142,0-22.021,9.878-22.021,22.02c0,12.143,9.878,22.021,22.021,22.021c1.676,0,3.339-0.2,4.959-0.573  c1.953,3.368,5.59,5.645,9.756,5.645c6.218,0,11.276-5.059,11.276-11.277C49.006,34.399,47.036,30.973,44.046,28.942z   M23.015,42.484c-11.04,0-20.021-8.981-20.021-20.021c0-11.039,8.981-20.02,20.021-20.02c11.039,0,20.021,8.981,20.021,20.02  c0,1.874-0.271,3.714-0.779,5.494c-1.292-0.569-2.709-0.896-4.198-0.939c0.445-1.471,0.672-2.997,0.672-4.555  c0-0.8-0.062-1.609-0.184-2.406c-0.083-0.546-0.584-0.923-1.14-0.838c-0.546,0.083-0.921,0.594-0.837,1.14  c0.106,0.697,0.16,1.405,0.16,2.104c0,1.621-0.294,3.197-0.845,4.702c-4.47,0.74-8.053,4.11-9.106,8.467  c-1.892,0.539-3.9,0.686-5.866,0.385c-0.548-0.083-1.057,0.29-1.141,0.836s0.29,1.057,0.836,1.141  c0.795,0.122,1.604,0.185,2.407,0.185c1.172,0,2.331-0.137,3.462-0.392c-0.007,0.164-0.024,0.325-0.024,0.491  c0,1.327,0.242,2.596,0.665,3.78C25.773,42.338,24.399,42.484,23.015,42.484z M37.729,47.556c-5.115,0-9.277-4.162-9.277-9.277  s4.162-9.276,9.277-9.276s9.276,4.161,9.276,9.276S42.845,47.556,37.729,47.556z"/><path d="M41.083,38.24l-2.354,2.456v-7.323c0-0.553-0.447-1-1-1s-1,0.447-1,1v7.321l-2.354-2.454  c-0.382-0.397-1.015-0.41-1.414-0.029c-0.398,0.382-0.412,1.016-0.029,1.414l4.075,4.25c0.002,0.002,0.006,0.003,0.008,0.006  c0.005,0.004,0.009,0.009,0.014,0.014c0.003,0.003,0.004,0.008,0.008,0.012c0.06,0.057,0.131,0.089,0.199,0.128  c0.037,0.021,0.066,0.054,0.106,0.07c0.002,0.001,0.004,0.001,0.006,0.002c0.122,0.05,0.251,0.078,0.381,0.078  c0.063,0,0.123-0.025,0.185-0.037c0.063-0.012,0.127-0.014,0.187-0.037c0.027-0.011,0.05-0.032,0.076-0.045  c0.041-0.021,0.075-0.05,0.112-0.076c0.044-0.03,0.094-0.047,0.133-0.085c0.003-0.002,0.003-0.006,0.006-0.008  c0.004-0.005,0.009-0.008,0.013-0.013c0.003-0.003,0.008-0.004,0.011-0.007l4.075-4.252c0.383-0.399,0.369-1.032-0.029-1.414  C42.098,37.828,41.465,37.843,41.083,38.24z"/><text x="0" y="65" fill="#000000" font-size="5px" font-weight="bold" font-family="'Helvetica Neue', Helvetica, Arial-Unicode, Arial, Sans-serif">Created by Alex Burte</text><text x="0" y="70" fill="#000000" font-size="5px" font-weight="bold" font-family="'Helvetica Neue', Helvetica, Arial-Unicode, Arial, Sans-serif">from the Noun Project</text></svg>