<?xml version="1.0" encoding="UTF-8" standalone="no"?>
<!DOCTYPE svg PUBLIC "-//W3C//DTD SVG 1.1//EN" "http://www.w3.org/Graphics/SVG/1.1/DTD/svg11.dtd">
<svg width="100%" height="100%" viewBox="0 0 400 400" version="1.1" xmlns="http://www.w3.org/2000/svg" xmlns:xlink="http://www.w3.org/1999/xlink" xml:space="preserve" xmlns:serif="http://www.serif.com/" style="fill-rule:evenodd;clip-rule:evenodd;stroke-linecap:round;stroke-linejoin:round;stroke-miterlimit:1.5;">
    <g transform="matrix(1.27078,0,0,1.25798,-48.4844,-66.2805)">
        <path d="M195.537,72.561C271.542,72.561 333.248,134.896 333.248,211.674C333.248,288.452 271.542,350.786 195.537,350.786C119.532,350.786 57.826,288.452 57.826,211.674C57.826,134.896 119.532,72.561 195.537,72.561ZM217.751,301.463C216.945,302.296 216.96,303.634 217.785,304.449L218.414,306.766C219.24,307.58 222.925,308.199 223.731,307.366C268.503,300.113 291.571,271.818 299.595,228.937C300.402,228.104 299.482,225.495 298.657,224.68L296.571,223C295.746,222.186 294.422,222.201 293.616,223.035C288.166,268.901 263.895,296.054 217.751,301.463ZM173.323,114.65C174.13,113.817 174.114,112.479 173.289,111.665L172.66,109.348C171.835,108.533 168.15,107.914 167.344,108.748C122.572,116 99.504,144.296 91.479,187.176C90.673,188.009 91.593,190.619 92.418,191.433L94.503,193.113C95.328,193.928 96.653,193.912 97.459,193.079C102.908,147.212 127.18,120.059 173.323,114.65ZM203.125,165.036L187.991,165.029L187.971,202.659L173.918,202.652L195.526,222.399L217.156,202.672L203.104,202.666L203.125,165.036ZM150.512,245.358C150.517,252.524 170.695,258.332 195.545,258.319C220.395,258.305 240.567,252.476 240.562,245.31C230.058,247.465 213.501,249.22 195.54,249.229C177.579,249.239 161.019,247.502 150.512,245.358Z" style="fill:none;stroke:url(#_Linear1);stroke-width:19.77px;"/>
    </g>
    <defs>
        <linearGradient id="_Linear1" x1="0" y1="0" x2="1" y2="0" gradientUnits="userSpaceOnUse" gradientTransform="matrix(214.363,210.503,-208.382,216.545,87.286,108.309)"><stop offset="0" style="stop-color:rgb(255,0,114);stop-opacity:1"/><stop offset="1" style="stop-color:rgb(0,207,255);stop-opacity:1"/></linearGradient>
    </defs>
</svg>
